<?xml version="1.0" encoding="UTF-8" standalone="no"?>
<!-- Created with Inkscape (http://www.inkscape.org/) -->

<svg
   xmlns:dc="http://purl.org/dc/elements/1.1/"
   xmlns:cc="http://creativecommons.org/ns#"
   xmlns:rdf="http://www.w3.org/1999/02/22-rdf-syntax-ns#"
   xmlns:svg="http://www.w3.org/2000/svg"
   xmlns="http://www.w3.org/2000/svg"
   xmlns:sodipodi="http://sodipodi.sourceforge.net/DTD/sodipodi-0.dtd"
   xmlns:inkscape="http://www.inkscape.org/namespaces/inkscape"
   width="744.09448819"
   height="1052.3622047"
   id="svg2"
   version="1.1"
   inkscape:version="0.48.0 r9654"
   sodipodi:docname="def_theme.svg"
   inkscape:export-filename="D:\bogdan.ionita\java\workspace\apache_root\themes\default\def_theme.png"
   inkscape:export-xdpi="90"
   inkscape:export-ydpi="90">
  <defs
     id="defs4" />
  <sodipodi:namedview
     id="base"
     pagecolor="#ffffff"
     bordercolor="#666666"
     borderopacity="1.0"
     inkscape:pageopacity="0.0"
     inkscape:pageshadow="2"
     inkscape:zoom="0.98994949"
     inkscape:cx="109.35913"
     inkscape:cy="882.52554"
     inkscape:document-units="px"
     inkscape:current-layer="layer1"
     showgrid="true"
     inkscape:snap-global="false"
     inkscape:window-width="1091"
     inkscape:window-height="906"
     inkscape:window-x="62"
     inkscape:window-y="49"
     inkscape:window-maximized="0">
    <inkscape:grid
       type="xygrid"
       id="grid2987" />
  </sodipodi:namedview>
  <metadata
     id="metadata7">
    <rdf:RDF>
      <cc:Work
         rdf:about="">
        <dc:format>image/svg+xml</dc:format>
        <dc:type
           rdf:resource="http://purl.org/dc/dcmitype/StillImage" />
        <dc:title></dc:title>
      </cc:Work>
    </rdf:RDF>
  </metadata>
  <g
     inkscape:label="Layer 1"
     inkscape:groupmode="layer"
     id="layer1">
    <path
       style="fill:#ab8c6f;fill-opacity:1;fill-rule:evenodd;stroke:#000000;stroke-width:0.5;stroke-linecap:butt;stroke-linejoin:miter;stroke-opacity:1;stroke-miterlimit:4;stroke-dasharray:none"
       d="m 100,72.362183 0,74.293177 c 0,3.07843 2.48456,5.56339 5.5625,5.56339 l 188.875,0 c 3.07794,0 5.5625,-2.48496 5.5625,-5.56339 l 0,-73.793097 0,-0.50008 -200,0 z"
       id="rect2989"
       inkscape:connector-curvature="0" />
    <path
       style="fill:#ab8c6f;fill-opacity:1;stroke:#000000;stroke-width:0.5;stroke-linecap:butt;stroke-linejoin:miter;stroke-opacity:1;stroke-miterlimit:4;stroke-dasharray:none"
       d="m 100,72.362183 c 0,0 0,0 0,-10 0,-10 10,-10 10,-10 0,0 170,0 180,0 10,0 10,10 10,10 l 0,10 z"
       id="path3767"
       inkscape:connector-curvature="0" />
    <path
       inkscape:connector-curvature="0"
       id="path3772"
       d="m 101.50912,71.59846 0,73.59971 c 0,3.04969 2.44707,5.51146 5.47855,5.51146 l 186.02466,0 c 3.03148,0 5.47855,-2.46177 5.47855,-5.51146 l 0,-73.104298 0,-0.495412 -196.98176,0 z"
       style="fill:#ece5de;fill-opacity:1;fill-rule:evenodd;stroke:#000000;stroke-width:0.5;stroke-linecap:butt;stroke-linejoin:miter;stroke-opacity:1;stroke-miterlimit:4;stroke-dasharray:none" />
    <path
       inkscape:connector-curvature="0"
       id="path3774"
       d="m 101.48652,71.885818 c 0,0 0,0 0,-9.018559 0,-9.018559 9.85135,-9.018559 9.85135,-9.018559 0,0 167.47292,0 177.32426,0 9.85135,0 9.85135,9.018559 9.85135,9.018559 l 0,9.018559 z"
       style="fill:#ceabbf;fill-opacity:1;stroke:#000000;stroke-width:0.5;stroke-linecap:butt;stroke-linejoin:miter;stroke-opacity:1;stroke-miterlimit:4;stroke-dasharray:none" />
  </g>
</svg>
